<svg xmlns="http://www.w3.org/2000/svg" version="1.1" xmlns:xlink="http://www.w3.org/1999/xlink" xmlns:svgjs="http://svgjs.dev/svgjs" width="800" height="163" viewBox="0 0 800 163"><g transform="matrix(1,0,0,1,-0.48484848484849863,-0.2792682402027964)"><svg viewBox="0 0 396 81" data-background-color="#ffffff" preserveAspectRatio="xMidYMid meet" height="163" width="800" xmlns="http://www.w3.org/2000/svg" xmlns:xlink="http://www.w3.org/1999/xlink"><g id="tight-bounds" transform="matrix(1,0,0,1,0.2400000000000091,0.13877746905782828)"><svg viewBox="0 0 395.52 80.72244506188432" height="80.72244506188432" width="395.52"><g><svg viewBox="0 0 395.52 80.72244506188432" height="80.72244506188432" width="395.52"><g><svg viewBox="0 0 395.52 80.72244506188432" height="80.72244506188432" width="395.52"><g id="textblocktransform"><svg viewBox="0 0 395.52 80.72244506188432" height="80.72244506188432" width="395.52" id="textblock"><g><svg viewBox="0 0 395.52 80.72244506188432" height="80.72244506188432" width="395.52"><g transform="matrix(1,0,0,1,0,0)"><svg width="395.52" viewBox="2 -39.65 197.93 40.4" height="80.72244506188432" data-palette-color="#88bdbc"><path d="M29.05-34.55L31.25 0 25.2 0 24.6-14.6Q24.3-22.6 24.3-26L24.3-26 24.35-28.6 19.6-3.8 13.6-3.8 8.65-28.65Q8.7-27.15 8.7-24.05L8.7-24.05Q8.7-18.8 8.5-14.4L8.5-14.4 7.95 0 2 0 4.2-34.55 12.2-34.55 16.7-10.2 20.9-34.55 29.05-34.55ZM52.95-6.4Q52.95-5.1 53.3-4.48 53.65-3.85 54.45-3.45L54.45-3.45 53.2 0.65Q51.15 0.4 49.92-0.45 48.7-1.3 48.1-3.05L48.1-3.05Q45.8 0.75 41.65 0.75L41.65 0.75Q38.35 0.75 36.4-1.48 34.45-3.7 34.45-7.4L34.45-7.4Q34.45-11.7 37.12-13.95 39.8-16.2 44.9-16.2L44.9-16.2 46.95-16.2 46.95-18.05Q46.95-20.55 46.07-21.58 45.2-22.6 43.25-22.6L43.25-22.6Q40.9-22.6 37.4-21.3L37.4-21.3 36-25.3Q38-26.2 40.15-26.68 42.3-27.15 44.25-27.15L44.25-27.15Q52.95-27.15 52.95-18.35L52.95-18.35 52.95-6.4ZM43.3-3.7Q45.7-3.7 46.95-7L46.95-7 46.95-12.55 45.5-12.55Q42.95-12.55 41.77-11.4 40.6-10.25 40.6-7.85L40.6-7.85Q40.6-5.8 41.3-4.75 42-3.7 43.3-3.7L43.3-3.7ZM68.25-27.15Q70.4-27.15 72.15-26.43 73.9-25.7 75.5-24.15L75.5-24.15 72.85-20.65Q71.75-21.55 70.77-21.98 69.8-22.4 68.65-22.4L68.65-22.4Q66.4-22.4 65.25-20.28 64.1-18.15 64.1-13.1L64.1-13.1Q64.1-8.2 65.27-6.2 66.45-4.2 68.65-4.2L68.65-4.2Q69.75-4.2 70.65-4.6 71.55-5 72.75-5.85L72.75-5.85 75.5-2.3Q72.3 0.75 68.35 0.75L68.35 0.75Q63.25 0.75 60.42-2.73 57.6-6.2 57.6-13L57.6-13Q57.6-17.4 58.9-20.6 60.2-23.8 62.62-25.48 65.05-27.15 68.25-27.15L68.25-27.15ZM87.94-27.15Q92.94-27.15 95.72-23.65 98.49-20.15 98.49-13.25L98.49-13.25Q98.49-6.65 95.69-2.95 92.89 0.75 87.94 0.75L87.94 0.75Q82.99 0.75 80.19-2.88 77.39-6.5 77.39-13.25L77.39-13.25Q77.39-19.95 80.19-23.55 82.99-27.15 87.94-27.15L87.94-27.15ZM87.94-22.5Q85.79-22.5 84.79-20.38 83.79-18.25 83.79-13.25L83.79-13.25Q83.79-8.2 84.79-6.08 85.79-3.95 87.94-3.95L87.94-3.95Q90.09-3.95 91.09-6.08 92.09-8.2 92.09-13.25L92.09-13.25Q92.09-18.3 91.09-20.4 90.09-22.5 87.94-22.5L87.94-22.5ZM108.64 0.75Q105.94 0.75 104.37-0.93 102.79-2.6 102.79-5.4L102.79-5.4 102.79-37.05 108.94-37.7 108.94-5.65Q108.94-5 109.24-4.6 109.54-4.2 110.14-4.2L110.14-4.2Q110.49-4.2 110.82-4.3 111.14-4.4 111.24-4.4L111.24-4.4 112.44-0.2Q110.74 0.75 108.64 0.75L108.64 0.75ZM115.49-26.45L121.64-26.45 121.64 0 115.49 0 115.49-26.45ZM118.54-39.65Q120.19-39.65 121.21-38.6 122.24-37.55 122.24-35.9L122.24-35.9Q122.24-34.3 121.21-33.25 120.19-32.2 118.54-32.2L118.54-32.2Q116.89-32.2 115.86-33.25 114.84-34.3 114.84-35.9L114.84-35.9Q114.84-37.55 115.86-38.6 116.89-39.65 118.54-39.65L118.54-39.65ZM134.69-27.15Q139.39-27.15 142.64-24.05L142.64-24.05 140.29-20.7Q138.89-21.7 137.64-22.2 136.39-22.7 135.09-22.7L135.09-22.7Q133.64-22.7 132.81-21.93 131.99-21.15 131.99-19.8L131.99-19.8Q131.99-18.45 132.91-17.63 133.84-16.8 136.64-15.7L136.64-15.7Q140.09-14.35 141.74-12.5 143.39-10.65 143.39-7.55L143.39-7.55Q143.39-3.7 140.69-1.48 137.99 0.75 133.84 0.75L133.84 0.75Q131.14 0.75 128.86-0.23 126.59-1.2 124.89-2.95L124.89-2.95 127.89-6.25Q130.69-3.8 133.59-3.8L133.59-3.8Q135.24-3.8 136.19-4.67 137.14-5.55 137.14-7.1L137.14-7.1Q137.14-8.25 136.74-8.97 136.34-9.7 135.34-10.33 134.34-10.95 132.34-11.7L132.34-11.7Q128.89-13.05 127.41-14.85 125.94-16.65 125.94-19.45L125.94-19.45Q125.94-22.8 128.31-24.98 130.69-27.15 134.69-27.15L134.69-27.15ZM158.38-5L160.53-1.2Q158.08 0.75 154.78 0.75L154.78 0.75Q151.33 0.75 149.53-1.23 147.73-3.2 147.73-6.6L147.73-6.6 147.73-22 144.63-22 144.63-26.45 147.73-26.45 147.73-32.3 153.88-33.05 153.88-26.45 158.88-26.45 158.28-22 153.88-22 153.88-6.6Q153.88-4.2 155.93-4.2L155.93-4.2Q156.58-4.2 157.08-4.38 157.58-4.55 158.38-5L158.38-5ZM181.93-13.85Q181.93-13.4 181.78-11.3L181.78-11.3 168.13-11.3Q168.33-7.2 169.56-5.58 170.78-3.95 173.03-3.95L173.03-3.95Q174.58-3.95 175.83-4.48 177.08-5 178.53-6.15L178.53-6.15 181.08-2.65Q177.58 0.75 172.68 0.75L172.68 0.75Q167.48 0.75 164.71-2.85 161.93-6.45 161.93-13L161.93-13Q161.93-19.55 164.58-23.35 167.23-27.15 172.08-27.15L172.08-27.15Q176.73-27.15 179.33-23.78 181.93-20.4 181.93-13.85L181.93-13.85ZM175.93-15.3L175.93-15.65Q175.93-19.4 175.03-21.13 174.13-22.85 172.13-22.85L172.13-22.85Q170.28-22.85 169.31-21.18 168.33-19.5 168.13-15.3L168.13-15.3 175.93-15.3ZM197.88-27.1Q199.03-27.1 199.93-26.75L199.93-26.75 198.93-20.85Q197.93-21.1 197.08-21.1L197.08-21.1Q195.18-21.1 194.08-19.45 192.98-17.8 192.38-14.55L192.38-14.55 192.38 0 186.23 0 186.23-26.45 191.58-26.45 192.03-21.85Q193.88-27.1 197.88-27.1L197.88-27.1Z" opacity="1" transform="matrix(1,0,0,1,0,0)" fill="#88bdbc" class="wordmark-text-0" data-fill-palette-color="primary" id="text-0"></path></svg></g></svg></g></svg></g></svg></g></svg></g><defs></defs></svg><rect width="395.52" height="80.72244506188432" fill="none" stroke="none" visibility="hidden"></rect></g></svg></g></svg>