<svg xmlns="http://www.w3.org/2000/svg" xmlns:xlink="http://www.w3.org/1999/xlink" width="40" zoomAndPan="magnify" viewBox="0 0 30 30.000001" height="40" preserveAspectRatio="xMidYMid meet" version="1.0"><defs><clipPath id="e47e57b96d"><path d="M 17 19 L 24.230469 19 L 24.230469 26.128906 L 17 26.128906 Z M 17 19 " clip-rule="nonzero"/></clipPath><clipPath id="c64628187a"><path d="M 6.085938 2.902344 L 21 2.902344 L 21 22 L 6.085938 22 Z M 6.085938 2.902344 " clip-rule="nonzero"/></clipPath><clipPath id="26d3e37b96"><path d="M 6.085938 19 L 13 19 L 13 26.128906 L 6.085938 26.128906 Z M 6.085938 19 " clip-rule="nonzero"/></clipPath><clipPath id="9f6878efe9"><path d="M 9 2.902344 L 24.230469 2.902344 L 24.230469 22 L 9 22 Z M 9 2.902344 " clip-rule="nonzero"/></clipPath><clipPath id="ba20f7c6ff"><path d="M 12.59375 11.507812 L 17.671875 11.507812 L 17.671875 17.3125 L 12.59375 17.3125 Z M 12.59375 11.507812 " clip-rule="nonzero"/></clipPath><clipPath id="f3d24e1fa5"><path d="M 13 11.507812 L 17 11.507812 L 17 17 L 13 17 Z M 13 11.507812 " clip-rule="nonzero"/></clipPath><clipPath id="bd414b7f64"><path d="M 13 11.507812 L 14 11.507812 L 14 17 L 13 17 Z M 13 11.507812 " clip-rule="nonzero"/></clipPath><clipPath id="74e8ecc415"><path d="M 16 11.507812 L 17 11.507812 L 17 16 L 16 16 Z M 16 11.507812 " clip-rule="nonzero"/></clipPath><clipPath id="b450370aeb"><path d="M 12.59375 11.507812 L 17.671875 11.507812 L 17.671875 17.3125 L 12.59375 17.3125 Z M 12.59375 11.507812 " clip-rule="nonzero"/></clipPath></defs><path fill="#cbcace" d="M 8.542969 4.117188 L 9.148438 4.917969 L 9.75 5.71875 L 10.957031 7.316406 L 11.558594 8.113281 L 12.164062 8.914062 L 12.765625 9.710938 L 13.371094 10.511719 L 13.972656 11.3125 L 15.179688 12.910156 L 15.785156 13.707031 L 16.386719 14.507812 L 16.992188 15.308594 L 17.59375 16.105469 L 18.195312 16.90625 L 18.800781 17.703125 L 19.402344 18.503906 L 20.007812 19.304688 L 20.613281 20.101562 L 21.164062 19.699219 L 20.558594 18.898438 L 19.957031 18.101562 L 19.351562 17.300781 L 18.75 16.503906 L 18.148438 15.703125 L 17.542969 14.90625 L 16.941406 14.105469 L 16.335938 13.304688 L 15.734375 12.507812 L 14.527344 10.910156 L 13.921875 10.109375 L 13.320312 9.308594 L 12.714844 8.511719 L 12.113281 7.710938 L 11.507812 6.914062 L 10.90625 6.113281 L 10.304688 5.316406 L 9.699219 4.515625 L 9.097656 3.714844 L 8.542969 4.117188 " fill-opacity="1" fill-rule="nonzero"/><g clip-path="url(#e47e57b96d)"><path fill="#fbbf15" d="M 20.613281 20.101562 L 19.503906 20.90625 L 18.953125 21.308594 L 18.398438 21.710938 L 17.847656 22.113281 L 18.449219 22.914062 L 19.054688 23.710938 L 19.605469 23.308594 L 20.160156 22.90625 L 20.761719 23.707031 L 21.96875 25.304688 L 22.574219 26.105469 L 23.125 25.703125 L 23.679688 25.300781 L 24.230469 24.898438 L 23.628906 24.097656 L 23.023438 23.300781 L 21.816406 21.699219 L 22.371094 21.296875 L 22.921875 20.894531 L 22.320312 20.097656 L 21.71875 19.296875 L 20.613281 20.101562 " fill-opacity="1" fill-rule="nonzero"/></g><g clip-path="url(#c64628187a)"><path fill="#8f939b" d="M 6.78125 2.921875 L 6.230469 3.324219 L 6.832031 4.125 L 6.28125 4.527344 L 6.882812 5.324219 L 6.332031 5.726562 L 6.933594 6.527344 L 8.746094 8.925781 L 9.347656 9.722656 L 9.953125 10.523438 L 10.554688 11.324219 L 11.160156 12.121094 L 11.761719 12.921875 L 15.382812 17.714844 L 15.984375 18.515625 L 16.589844 19.3125 L 17.191406 20.113281 L 17.796875 20.914062 L 18.398438 21.710938 L 18.953125 21.308594 L 19.503906 20.90625 L 20.613281 20.101562 L 20.007812 19.304688 L 19.402344 18.503906 L 18.800781 17.703125 L 18.195312 16.90625 L 17.59375 16.105469 L 16.992188 15.308594 L 16.386719 14.507812 L 15.785156 13.707031 L 15.179688 12.910156 L 13.972656 11.3125 L 13.371094 10.511719 L 12.765625 9.710938 L 12.164062 8.914062 L 11.558594 8.113281 L 10.957031 7.316406 L 9.75 5.71875 L 9.148438 4.917969 L 8.542969 4.117188 L 7.941406 3.320312 L 7.386719 3.722656 L 6.78125 2.921875 " fill-opacity="1" fill-rule="nonzero"/></g><path fill="#cbcace" d="M 21.777344 4.117188 L 21.171875 4.917969 L 20.570312 5.71875 L 19.363281 7.316406 L 18.757812 8.113281 L 18.15625 8.914062 L 17.554688 9.710938 L 16.949219 10.511719 L 16.347656 11.3125 L 15.140625 12.910156 L 14.535156 13.707031 L 13.933594 14.507812 L 13.328125 15.308594 L 12.726562 16.105469 L 12.121094 16.90625 L 11.519531 17.703125 L 10.914062 18.503906 L 10.3125 19.304688 L 9.707031 20.101562 L 9.15625 19.699219 L 9.757812 18.898438 L 10.363281 18.101562 L 10.964844 17.300781 L 11.570312 16.503906 L 12.171875 15.703125 L 12.777344 14.90625 L 13.378906 14.105469 L 13.984375 13.304688 L 14.585938 12.507812 L 15.191406 11.707031 L 15.792969 10.910156 L 16.398438 10.109375 L 17 9.308594 L 17.601562 8.511719 L 18.207031 7.710938 L 18.808594 6.914062 L 19.414062 6.113281 L 20.015625 5.316406 L 20.621094 4.515625 L 21.222656 3.714844 L 21.777344 4.117188 " fill-opacity="1" fill-rule="nonzero"/><g clip-path="url(#26d3e37b96)"><path fill="#fbbf15" d="M 9.707031 20.101562 L 10.261719 20.503906 L 10.8125 20.90625 L 11.367188 21.308594 L 11.917969 21.710938 L 12.472656 22.113281 L 11.871094 22.914062 L 11.265625 23.710938 L 10.714844 23.308594 L 10.160156 22.90625 L 9.558594 23.707031 L 8.351562 25.304688 L 7.746094 26.105469 L 7.195312 25.703125 L 6.640625 25.300781 L 6.089844 24.898438 L 6.691406 24.097656 L 7.296875 23.300781 L 8.503906 21.699219 L 7.394531 20.894531 L 8 20.097656 L 8.601562 19.296875 L 9.707031 20.101562 " fill-opacity="1" fill-rule="nonzero"/></g><g clip-path="url(#9f6878efe9)"><path fill="#8f939b" d="M 23.535156 2.921875 L 24.089844 3.324219 L 23.484375 4.125 L 24.039062 4.527344 L 23.4375 5.324219 L 23.988281 5.726562 L 23.382812 6.527344 L 21.574219 8.925781 L 20.972656 9.722656 L 20.367188 10.523438 L 19.765625 11.324219 L 19.160156 12.121094 L 18.558594 12.921875 L 14.9375 17.714844 L 14.335938 18.515625 L 13.730469 19.3125 L 13.128906 20.113281 L 12.523438 20.914062 L 11.917969 21.710938 L 11.367188 21.308594 L 10.8125 20.90625 L 10.261719 20.503906 L 9.707031 20.101562 L 10.3125 19.304688 L 10.914062 18.503906 L 11.519531 17.703125 L 12.121094 16.90625 L 12.726562 16.105469 L 13.328125 15.308594 L 13.933594 14.507812 L 14.535156 13.707031 L 15.140625 12.910156 L 16.347656 11.3125 L 16.949219 10.511719 L 17.554688 9.710938 L 18.15625 8.914062 L 18.757812 8.113281 L 19.363281 7.316406 L 20.570312 5.71875 L 21.171875 4.917969 L 21.777344 4.117188 L 22.378906 3.320312 L 22.933594 3.722656 L 23.535156 2.921875 " fill-opacity="1" fill-rule="nonzero"/></g><path fill="#fbbf15" d="M 20.203125 10.871094 L 18.761719 10.871094 L 18.761719 9.828125 L 16.601562 9.828125 L 16.601562 8.785156 L 13.71875 8.785156 L 13.71875 9.828125 L 11.558594 9.828125 L 11.558594 10.871094 L 10.117188 10.871094 L 10.117188 11.910156 L 11.558594 11.910156 L 11.558594 12.953125 L 13 12.953125 L 13 13.992188 L 14.441406 13.992188 L 14.441406 15.035156 L 15.878906 15.035156 L 15.878906 16.074219 L 17.320312 16.074219 L 17.320312 17.117188 L 19.480469 17.117188 L 19.480469 16.074219 L 20.203125 16.074219 L 20.203125 13.992188 L 20.921875 13.992188 L 20.921875 10.871094 L 20.203125 10.871094 " fill-opacity="1" fill-rule="nonzero"/><path fill="#606166" d="M 20.921875 11.910156 L 20.921875 13.992188 L 20.203125 13.992188 L 20.203125 16.074219 L 19.480469 16.074219 L 19.480469 17.117188 L 18.761719 17.117188 L 18.761719 18.15625 L 18.042969 18.15625 L 18.042969 19.199219 L 17.320312 19.199219 L 17.320312 20.238281 L 15.878906 20.238281 L 15.878906 21.28125 L 14.441406 21.28125 L 14.441406 20.238281 L 13 20.238281 L 13 19.199219 L 12.277344 19.199219 L 12.277344 18.15625 L 11.558594 18.15625 L 11.558594 17.117188 L 10.835938 17.117188 L 10.835938 16.074219 L 10.117188 16.074219 L 10.117188 15.035156 L 9.398438 15.035156 L 9.398438 10.871094 L 11.558594 10.871094 L 11.558594 9.828125 L 13.71875 9.828125 L 13.71875 8.785156 L 16.601562 8.785156 L 16.601562 9.828125 L 18.761719 9.828125 L 18.761719 10.871094 L 20.921875 10.871094 Z M 20.921875 9.828125 L 20.203125 9.828125 L 20.203125 8.785156 L 18.042969 8.785156 L 18.042969 7.746094 L 15.878906 7.746094 L 15.878906 6.703125 L 14.441406 6.703125 L 14.441406 7.746094 L 12.277344 7.746094 L 12.277344 8.785156 L 10.117188 8.785156 L 10.117188 9.828125 L 8.675781 9.828125 L 8.675781 16.074219 L 9.398438 16.074219 L 9.398438 17.117188 L 10.117188 17.117188 L 10.117188 18.15625 L 10.835938 18.15625 L 10.835938 19.199219 L 11.558594 19.199219 L 11.558594 20.238281 L 12.277344 20.238281 L 12.277344 21.28125 L 13.71875 21.28125 L 13.71875 22.324219 L 16.601562 22.324219 L 16.601562 21.28125 L 18.042969 21.28125 L 18.042969 20.238281 L 18.761719 20.238281 L 18.761719 19.199219 L 19.480469 19.199219 L 19.480469 18.15625 L 20.203125 18.15625 L 20.203125 17.117188 L 20.921875 17.117188 L 20.921875 16.074219 L 21.644531 16.074219 L 21.644531 9.828125 L 20.921875 9.828125 " fill-opacity="1" fill-rule="nonzero"/><path fill="#5fc9d1" d="M 17.320312 17.117188 L 17.320312 16.074219 L 15.878906 16.074219 L 15.878906 15.035156 L 14.441406 15.035156 L 14.441406 13.992188 L 13 13.992188 L 13 12.953125 L 11.558594 12.953125 L 11.558594 11.910156 L 10.117188 11.910156 L 10.117188 10.871094 L 9.398438 10.871094 L 9.398438 15.035156 L 10.117188 15.035156 L 10.117188 16.074219 L 10.835938 16.074219 L 10.835938 17.117188 L 11.558594 17.117188 L 11.558594 18.15625 L 12.277344 18.15625 L 12.277344 19.199219 L 13 19.199219 L 13 20.238281 L 14.441406 20.238281 L 14.441406 21.28125 L 15.878906 21.28125 L 15.878906 20.238281 L 17.320312 20.238281 L 17.320312 19.199219 L 18.042969 19.199219 L 18.042969 18.15625 L 18.761719 18.15625 L 18.761719 17.117188 L 17.320312 17.117188 " fill-opacity="1" fill-rule="nonzero"/><g clip-path="url(#ba20f7c6ff)"><path fill="#fbbf15" d="M 15.386719 11.507812 L 15.386719 13.363281 L 14.878906 13.363281 L 14.878906 11.507812 L 12.59375 11.507812 L 12.59375 17.3125 L 14.878906 17.3125 L 14.878906 14.992188 L 15.386719 14.992188 L 15.386719 17.3125 L 17.671875 17.3125 L 17.671875 11.507812 Z M 15.386719 11.507812 " fill-opacity="1" fill-rule="nonzero"/><path fill="#6733f6" d="M 17.417969 11.738281 L 17.417969 17.082031 L 15.640625 17.082031 L 15.640625 14.757812 L 14.625 14.757812 L 14.625 17.082031 L 12.847656 17.082031 L 12.847656 11.738281 L 14.625 11.738281 L 14.625 13.597656 L 15.640625 13.597656 L 15.640625 11.738281 Z M 17.417969 11.738281 " fill-opacity="1" fill-rule="nonzero"/></g><g clip-path="url(#f3d24e1fa5)"><path fill="#5fc9d1" d="M 16.402344 11.972656 L 15.894531 11.972656 L 15.894531 13.828125 L 14.117188 13.828125 L 14.117188 11.972656 L 13.609375 11.972656 L 13.21875 12.4375 L 13.21875 16.4375 L 13.863281 16.847656 L 14.117188 16.847656 L 14.117188 14.527344 L 15.894531 14.527344 L 15.894531 16.847656 L 16.910156 16.847656 L 16.910156 12.4375 L 16.78125 12.175781 Z M 16.402344 11.972656 " fill-opacity="1" fill-rule="nonzero"/></g><g clip-path="url(#bd414b7f64)"><path fill="#5fc9d1" d="M 13.863281 16.617188 L 13.863281 16.847656 L 13.101562 16.847656 L 13.101562 11.972656 L 13.609375 11.972656 L 13.609375 16.617188 Z M 13.863281 16.617188 " fill-opacity="1" fill-rule="nonzero"/></g><g clip-path="url(#74e8ecc415)"><path fill="#6733f6" d="M 16.910156 11.972656 L 16.910156 12.4375 L 16.65625 12.4375 L 16.65625 12.203125 L 16.402344 12.203125 L 16.402344 11.972656 Z M 16.402344 15.457031 L 16.402344 15.6875 L 16.65625 15.6875 L 16.65625 15.222656 L 16.402344 15.222656 Z M 16.402344 14.0625 L 16.65625 14.0625 L 16.65625 13.828125 L 16.402344 13.828125 Z M 16.402344 12.898438 L 16.65625 12.898438 L 16.65625 12.667969 L 16.402344 12.667969 Z M 16.402344 12.898438 " fill-opacity="1" fill-rule="nonzero"/></g><g clip-path="url(#b450370aeb)"><path fill="#fbbf15" d="M 17.417969 11.507812 L 15.386719 11.507812 L 15.386719 13.363281 L 14.878906 13.363281 L 14.878906 11.507812 L 12.59375 11.507812 L 12.59375 17.3125 L 14.878906 17.3125 L 14.878906 14.992188 L 15.386719 14.992188 L 15.386719 17.3125 L 17.671875 17.3125 L 17.671875 11.507812 Z M 17.417969 11.972656 L 17.417969 17.082031 L 15.640625 17.082031 L 15.640625 14.757812 L 14.625 14.757812 L 14.625 17.082031 L 12.847656 17.082031 L 12.847656 11.738281 L 14.625 11.738281 L 14.625 13.597656 L 15.640625 13.597656 L 15.640625 11.738281 L 17.417969 11.738281 Z M 16.402344 15.6875 L 16.65625 15.6875 L 16.65625 16.382812 L 16.402344 16.382812 Z M 16.402344 12.898438 L 16.65625 12.898438 L 16.65625 13.363281 L 16.402344 13.363281 Z M 16.402344 12.898438 " fill-opacity="1" fill-rule="nonzero"/></g></svg>